# xmcd
#
# Track frame offsets:
#	183
#	15358
#	26533
#	45158
#	63208
#	79308
#	95758
#	112658
#	127183
#	147220
#	160883
#	172858
#	185583
#	198433
#
# Disc length: 3037 seconds
#
# Revision: 1
# Processed by: cddbd v1.5.1PL0 Copyright (c) Steve Scherf et al.
# Submitted via: audiograbber 1.83.01
#
DISCID=ac0bdb0e
DTITLE=Various Artist - Blues "Zydeco" Party
DYEAR=1995
DGENRE=Blues
TTITLE0=Lynn August - Brûler Le Chemin De Fer à Soir
TTITLE1=Terrance Simien - Uncle Bud
TTITLE2=Buckwheat Zydeco - In The Summertime
TTITLE3=Carol Fran and Clarence Hollimon - Push Pull
TTITLE4=John Delafose and The Eunice Playboys - Old Time Two Step
TTITLE5=Beau Jocque and The Zydeco Hi-Rollers - Richard's Club
TTITLE6=Boozoo Chavis and The Majic Sounds - Lula Lula Don't You Go To Bingo
TTITLE7=Nathan and The Zydeco Cha Chas - One Track Mind
TTITLE8=Geno Delafose - Je Ne Apprecie Pas Ca
TTITLE9=Lynn August - Why You Want To Hurt A Man Like Me?
TTITLE10=Buckwheat's Zydeco Party - Madame Pitre
TTITLE11=John Delafose - Baby Bye Bye
TTITLE12=Boozoo Chavis and The Matic Sound - Boozoo's Payback
TTITLE13=Beau Jocque and The Zydeco Hi-Roller - Beau Jocque Boogie
EXTD=
EXTT0=
EXTT1=
EXTT2=
EXTT3=
EXTT4=
EXTT5=
EXTT6=
EXTT7=
EXTT8=
EXTT9=
EXTT10=
EXTT11=
EXTT12=
EXTT13=
PLAYORDER=
